<svg xmlns="http://www.w3.org/2000/svg" viewBox="0 0 2600 2600">
  <g transform="translate(0 2600) scale(0.1 -0.1)" fill="#000" stroke="none">
    <path d="M20200 23106c-89-26-4280-1495-4307-1510-35-18-75-61-99-106-18-34-19-168-24-4490l-5-4455-430-152c-236-83-437-152-447-152-9-1-51 27-95 62-259 209-899 697-914 697-5 0-9 554-9 1325l0 1325-72-61c-226-190-519-330-820-391-98-20-143-23-338-23-195 0-240 3-340 23-226 46-451 137-637 258l-83 54v-587l0-586-54 51c-58 55-103 78-184 93-146 28-317-72-370-214-19-50-20-90-23-877-4-819-3-826 19-970 75-472 227-880 459-1229 46-68 83-126 83-130 0-3-135-53-299-109l-298-104-179 139c-99 77-271 208-384 292-113 85-209 157-213 161-5 4-8 600-7 1324 0 1067-2 1316-12 1310-7-5-42-32-77-62-340-288-825-441-1278-404-311 26-613 127-848 285l-70 47v-585l-2-584-46 45c-70 71-140 99-244 99-76 0-93-4-152-33-103-50-166-134-187-249-5-26-10-383-11-793-3-808 0-867 55-1147 62-317 192-672 339-923 20-34 33-66 29-70-4-4-154-58-333-120-179-62-330-115-336-117-6-2-42 20-80 49-38 30-163 125-277 212l-209 157v1320l1 1320-83-67c-265-216-563-349-893-399-127-19-379-19-512 0-255 36-514 132-716 264-43 28-82 51-87 51-6 0-10-212-10-580v-580-36 40c-43 47-118 86-194 100-130 24-266-39-346-160-51-78-52-90-55-916-2-674 0-785 14-897 77-578 256-1035 569-1450l89-119-68-1091c-38-620-64-1108-60-1129 12-58 65-129 119-156 130-67 298 11 328 151 6 29 35 447 65 931 30 483 56 880 58 883 3 2 46-23 96-56 108-71 318-179 439-226 48-19 208-92 357-163l270-130-2-33c-2-19-28-451-59-962-56-910-56-928-39-975 46-123 194-186 311-133 49 22 106 87 123 138 7 22 37 446 71 992 32 524 60 954 62 955 15 10 456 196 464 196 6 0 20-10 32-23 21-22 22-32 22-204 0-278-29-742-87-1390-25-286-26-306-11-380 23-118 70-205 158-294 117-119 242-172 405-172 164 0 300 58 414 178 115 121 148 213 172 475 6 74 13 137 15 139 1 1 18-8 36-22 92-69 213-107 339-107 149 0 276 51 384 151 75 71 119 136 152 227 37 101 46 323 39 1002-8 872-38 1178-132 1351-40 73-144 207-242 310l-90 95 19 305c10 167 20 309 21 316 2 7 44-14 100-51 125-80 285-164 424-219 60-25 230-102 377-172l268-129-6-65c-19-215-114-1847-109-1869 17-70 67-134 129-164 109-54 247-6 302 105 23 45 26 78 84 1009 33 529 61 964 63 965 1 2 106 48 232 103 315 137 300 151 284-268-15-405-44-825-91-1322-22-232-20-273 17-390 52-165 196-308 363-361 211-67 429-13 586 145 115 116 154 217 175 456 6 69 13 135 16 148l5 23 31-26c72-61 230-115 332-115 260 1 491 180 562 435 15 52 18 111 22 675 4 759-10 1116-54 1384-30 179-73 272-201 431-87 109-349 370-526 525-75 65-133 122-129 126 4 4 181 68 393 142 213 75 400 142 415 150 40 21 80 65 101 112 17 38 18 229 23 4490l5 4449 1880 658c1034 362 1888 661 1897 664 17 5 18-212 20-4368l3-4373 22-41c46-87 128-130 228-122 32 3 513 167 1305 444l1255 439 46 45c73 73 88 174 40 269-40 77-132 127-218 119-27-3-532-175-1123-382-591-207-1080-376-1087-376-11 0-13 799-13 4365 0 3924-2 4369-16 4403-44 106-169 162-284 128z"/>
    <path d="M12516 18340c-616-57-1121-527-1222-1139-22-135-15-385 14-512 125-535 540-937 1081-1046 120-25 384-24 501 0 186 40 358 111 512 214 108 71 293 259 367 372 103 157 169 316 208 501 27 132 25 392-5 529-97 434-376 782-774 965-198 92-460 136-682 116z"/>
    <path d="M16678 17401c-188-62-321-229-335-422-21-270 212-484 480-439 249 42 440 297 398 531-25 144-124 272-248 320-81 31-217 36-295 10z"/>
    <path d="M8724 16770c-525-74-953-428-1119-923-49-147-69-268-68-427 1-337 108-626 330-891 271-324 711-505 1138-468 879 75 1457 946 1184 1782-66 203-172 371-333 533-200 201-423 321-701 379-92 19-340 28-431 15z"/>
    <path d="M4916 15194c-478-87-884-431-1045-887-66-187-92-396-72-582 14-128 22-166 63-295 64-203 167-370 333-536 275-278 624-416 1010-400 354 14 653 145 906 396 199 198 322 426 380 702 29 138 31 362 5 498-72 374-278 687-591 897-145 97-353 180-525 208-118 19-356 18-464-1z"/>
  </g>
</svg>
