<?xml version="1.0" standalone="no"?>
<!DOCTYPE svg PUBLIC "-//W3C//DTD SVG 20010904//EN"
 "http://www.w3.org/TR/2001/REC-SVG-20010904/DTD/svg10.dtd">
<svg version="1.0" xmlns="http://www.w3.org/2000/svg"
 viewBox="0 0 2600.000000 2600.000000"
 preserveAspectRatio="xMidYMid meet">
<metadata>
Created by potrace 1.15, written by Peter Selinger 2001-2017
</metadata>
<g transform="translate(0.000000,2600.000000) scale(0.100000,-0.100000)"
fill="#000000" stroke="none">
<path d="M5951 19575 c-349 -76 -603 -309 -708 -652 -24 -80 -27 -103 -27
-248 -1 -170 4 -197 61 -349 54 -145 203 -325 346 -419 180 -119 409 -175 610
-148 429 57 756 387 807 814 25 215 -36 452 -164 630 -46 65 -147 169 -206
212 -101 75 -265 144 -390 164 -89 15 -252 12 -329 -4z"/>
<path d="M10126 19580 c-61 -11 -199 -56 -251 -83 -82 -41 -188 -122 -263
-202 -253 -268 -318 -669 -161 -1003 118 -254 341 -440 616 -513 114 -31 306
-31 427 -1 180 45 329 133 459 272 166 176 247 382 247 625 0 181 -48 347
-145 496 -121 187 -299 319 -522 385 -72 22 -113 27 -223 30 -74 1 -157 -1
-184 -6z"/>
<path d="M14282 19579 c-317 -56 -608 -303 -707 -599 -58 -174 -68 -316 -35
-480 82 -401 395 -690 805 -742 200 -25 429 33 606 153 183 124 321 319 380
534 33 118 33 337 1 454 -88 322 -321 562 -637 657 -74 22 -114 27 -225 30
-74 1 -159 -1 -188 -7z"/>
<path d="M18421 19575 c-347 -76 -604 -312 -707 -650 -25 -81 -28 -106 -28
-245 -1 -165 7 -213 60 -353 68 -177 233 -361 416 -461 119 -66 304 -116 429
-116 391 0 761 268 878 638 108 342 22 692 -230 939 -35 35 -80 74 -99 88
-101 75 -265 144 -390 164 -89 15 -252 12 -329 -4z"/>
<path d="M5356 17603 c-3 -8 -6 -417 -6 -909 l0 -894 -635 0 -635 0 -481 -601
c-264 -330 -479 -603 -477 -605 3 -3 6889 -7 7299 -4 l47 0 22 98 c62 269 189
531 368 761 76 97 223 248 301 306 l52 40 -75 3 -76 3 0 903 c0 496 -3 905 -6
909 -3 3 -33 -13 -67 -35 -425 -275 -974 -276 -1400 -2 -37 24 -70 44 -72 44
-3 0 -5 -409 -5 -910 l0 -910 -1305 0 -1305 0 0 910 c0 501 -2 910 -4 910 -2
0 -28 -16 -57 -36 -67 -45 -233 -126 -316 -152 -135 -44 -222 -57 -393 -57
-177 0 -266 13 -409 61 -94 32 -218 91 -298 142 -49 33 -63 38 -67 25z"/>
<path d="M13666 17573 c-3 -25 -6 -434 -6 -909 l0 -864 -37 0 -38 -1 50 -42
c155 -130 294 -285 398 -442 123 -186 244 -473 278 -657 9 -50 17 -68 28 -68
97 -2 7335 1 7337 3 1 1 -215 273 -479 604 l-482 603 -672 0 -673 0 0 910 c0
501 -2 910 -4 910 -2 0 -28 -16 -57 -36 -67 -45 -233 -126 -316 -152 -135 -44
-222 -57 -393 -57 -177 0 -266 13 -409 61 -94 32 -218 91 -298 142 -49 33 -63
38 -67 25 -3 -8 -6 -417 -6 -909 l0 -894 -1300 0 -1300 0 -1 888 c-1 488 -4
897 -7 910 -7 22 -7 22 -60 -14 -126 -84 -294 -154 -463 -190 -118 -26 -380
-26 -499 0 -160 35 -314 97 -445 180 -27 18 -55 35 -61 39 -7 4 -14 -9 -18
-40z"/>
<path d="M12245 15864 c-283 -41 -455 -96 -648 -206 -406 -231 -687 -612 -793
-1073 -39 -172 -46 -435 -15 -614 39 -226 128 -450 262 -651 43 -66 106 -139
206 -238 l144 -144 -60 -63 c-121 -130 -238 -333 -295 -515 -62 -196 -59 -146
-63 -1012 l-4 -797 113 51 c237 106 520 183 828 225 191 26 764 26 955 0 335
-45 658 -137 882 -251 29 -14 55 -26 58 -26 3 0 4 350 2 778 -3 747 -4 781
-24 870 -61 268 -163 474 -331 668 l-70 81 76 64 c206 173 383 438 472 708
103 310 116 590 41 906 -22 90 -90 275 -135 362 -53 106 -173 270 -270 371
-250 259 -516 407 -872 482 -96 20 -382 35 -459 24z"/>
<path d="M3230 11865 l0 -2375 245 0 245 0 0 1035 0 1035 3463 2 3462 3 6 295
c5 249 9 312 28 404 41 201 115 394 216 561 26 44 49 83 51 86 2 4 -24 40 -58
80 -263 314 -424 721 -447 1129 l-6 115 -3602 3 -3603 2 0 -2375z"/>
<path d="M14355 14138 c-30 -439 -174 -807 -442 -1138 l-69 -84 49 -81 c190
-316 257 -594 257 -1077 l0 -198 3580 0 3580 0 0 -1035 0 -1035 240 0 240 0 0
2375 0 2375 -3714 0 -3713 0 -8 -102z"/>
<path d="M12120 10463 c-411 -40 -685 -111 -959 -250 -673 -338 -1067 -1012
-1235 -2113 -84 -548 -108 -1015 -110 -2110 l-1 -785 23 -75 c34 -109 79 -186
148 -254 101 -102 242 -161 411 -174 l88 -7 3 -1108 2 -1107 265 0 265 0 0
1105 0 1105 1375 0 1375 0 0 -1105 0 -1105 265 0 265 0 0 1104 c0 997 2 1104
16 1110 9 3 39 6 67 6 76 0 207 34 289 76 143 72 253 216 292 384 30 125 20
1637 -14 2165 -61 943 -225 1627 -506 2112 -215 370 -526 655 -892 818 -243
107 -524 176 -842 205 -105 9 -506 12 -590 3z"/>
</g>
</svg>
