<?xml version="1.0" standalone="no"?>
<!DOCTYPE svg PUBLIC "-//W3C//DTD SVG 20010904//EN"
 "http://www.w3.org/TR/2001/REC-SVG-20010904/DTD/svg10.dtd">
<svg version="1.0" xmlns="http://www.w3.org/2000/svg"
 viewBox="0 0 2600.000000 2600.000000"
 preserveAspectRatio="xMidYMid meet">
<metadata>
Created by potrace 1.15, written by Peter Selinger 2001-2017
</metadata>
<g transform="translate(0.000000,2600.000000) scale(0.100000,-0.100000)"
fill="#000000" stroke="none">
<path d="M10590 22055 c0 -19 -431 -3379 -434 -3382 -1 -1 -756 140 -1679 314
-923 174 -1680 313 -1683 310 -3 -3 363 -679 812 -1502 704 -1289 815 -1499
802 -1509 -9 -6 -704 -338 -1546 -736 -842 -399 -1531 -727 -1531 -730 0 -3
689 -331 1531 -730 842 -399 1538 -730 1546 -736 13 -10 -105 -233 -802 -1509
-449 -823 -815 -1499 -812 -1502 3 -3 760 136 1683 310 923 174 1678 315 1679
314 3 -3 434 -3370 434 -3385 0 -24 16 -10 137 118 65 69 263 280 441 468
l322 341 0 608 -1 608 -143 -149 c-139 -146 -143 -149 -148 -120 -4 16 -77
584 -164 1262 -133 1034 -161 1232 -174 1232 -8 0 -570 -104 -1248 -231 -677
-128 -1234 -230 -1237 -227 -3 2 267 503 600 1113 333 610 604 1114 601 1119
-2 6 -518 254 -1145 551 -628 297 -1141 542 -1141 545 0 3 513 248 1141 545
627 297 1143 545 1145 551 3 5 -268 509 -601 1119 -333 610 -603 1111 -600
1113 3 3 559 -99 1237 -227 678 -127 1241 -231 1251 -231 9 0 17 7 17 16 0 27
310 2436 318 2473 l7 33 874 -926 875 -927 41 43 c23 24 417 440 875 926 458
486 834 882 835 880 2 -2 74 -550 160 -1218 85 -668 158 -1234 161 -1257 5
-32 11 -43 24 -43 10 0 568 104 1241 230 673 127 1229 229 1236 228 9 -2 -339
-651 -792 -1475 l-35 -63 478 0 477 0 733 1342 c402 738 730 1344 727 1346 -2
3 -759 -137 -1682 -311 -923 -174 -1679 -315 -1680 -313 -2 2 -101 763 -220
1692 -119 929 -219 1692 -222 1696 -4 5 -535 -552 -1181 -1237 l-1174 -1245
-52 52 c-29 29 -557 589 -1174 1243 -617 655 -1126 1192 -1131 1193 -5 2 -9
-4 -9 -13z"/>
<path d="M12190 11140 l0 -4760 1920 0 1920 0 0 1320 0 1320 1520 0 1520 0 0
3440 0 3440 -3440 0 -3440 0 0 -4760z m6080 2840 l0 -1120 -360 0 -360 0 0
560 0 560 -400 0 -400 0 0 -560 0 -560 -760 0 -760 0 0 -960 0 -960 400 0 400
0 0 560 0 560 1120 0 1120 0 0 -1120 0 -1120 -1520 0 -1520 0 0 -605 0 -605
-1120 0 -1120 0 0 3245 0 3245 2640 0 2640 0 0 -1120z"/>
<path d="M19770 14820 c0 -209 3 -380 6 -380 14 0 794 373 794 380 0 6 -781
380 -794 380 -3 0 -6 -171 -6 -380z"/>
</g>
</svg>
